<svg width="1200" height="135" viewBox="0 0 1200 135" fill="none" xmlns="http://www.w3.org/2000/svg" role="img" aria-labelledby="title desc">
  <title id="title">奶油苏打主题分隔线</title>
  <desc id="desc">一条天空蓝色波浪线，点缀小花、星星、云朵和便签纸。</desc>
  <path d="M0 81C150 51 290 102 436 72C593 41 755 103 910 70C1033 44 1113 63 1200 47" stroke="#B7DDEA" stroke-width="12" stroke-linecap="round"/>
  <path d="M0 93C145 66 298 113 448 85C602 56 755 117 918 84C1044 58 1123 76 1200 61" stroke="#83B8A7" stroke-opacity=".72" stroke-width="4" stroke-linecap="round" stroke-dasharray="3 14"/>
  <g transform="translate(540 12)">
    <rect x="0" y="0" width="122" height="92" rx="13" fill="#FFF3C9" stroke="#E6B77B" stroke-width="3"/>
    <path d="M24 25H97M24 43H89M24 61H74" stroke="#DFA67D" stroke-width="4" stroke-linecap="round"/>
    <circle cx="61" cy="0" r="8" fill="#E68A9E"/>
  </g>
  <g transform="translate(161 44)">
    <circle cx="0" cy="0" r="18" fill="#F8C9D3"/>
    <circle cx="28" cy="0" r="18" fill="#F8C9D3"/>
    <circle cx="14" cy="-16" r="18" fill="#F8C9D3"/>
    <circle cx="14" cy="16" r="18" fill="#F8C9D3"/>
    <circle cx="14" cy="0" r="13" fill="#F4C767"/>
  </g>
  <g transform="translate(1010 53)">
    <ellipse cx="0" cy="0" rx="52" ry="16" fill="#FFFFFF"/>
    <ellipse cx="-34" cy="5" rx="30" ry="13" fill="#FFFFFF"/>
    <ellipse cx="36" cy="6" rx="32" ry="13" fill="#FFFFFF"/>
  </g>
  <path d="M353 35L360 53L380 54L364 66L369 85L353 74L337 85L342 66L326 54L346 53L353 35Z" fill="#F4C767"/>
  <path d="M852 31L859 49L879 50L863 62L868 81L852 70L836 81L841 62L825 50L845 49L852 31Z" fill="#E68A9E"/>
</svg>
