<svg width="1200" height="360" viewBox="0 0 1200 360" fill="none" xmlns="http://www.w3.org/2000/svg" role="img" aria-labelledby="title desc">
  <title id="title">Littleseven 的奶油苏打文具铺</title>
  <desc id="desc">奶油色背景上的可爱文具铺横幅，点缀云朵、星星、花朵、便签、书本和苏打水。</desc>
  <defs>
    <linearGradient id="paper" x1="0" y1="0" x2="1200" y2="360" gradientUnits="userSpaceOnUse">
      <stop stop-color="#FFF9F0"/>
      <stop offset=".58" stop-color="#FFF3E4"/>
      <stop offset="1" stop-color="#FCE8DE"/>
    </linearGradient>
    <pattern id="dots" width="22" height="22" patternUnits="userSpaceOnUse">
      <circle cx="3" cy="3" r="1.6" fill="#E6B7C0" fill-opacity=".28"/>
    </pattern>
  </defs>

  <rect width="1200" height="360" rx="30" fill="url(#paper)"/>
  <rect width="1200" height="360" rx="30" fill="url(#dots)"/>
  <path d="M0 302C186 264 330 318 503 289C659 263 792 273 932 297C1034 314 1115 293 1200 268V360H0V302Z" fill="#CDE6DA"/>
  <path d="M0 326C191 298 364 340 544 316C748 289 929 327 1200 289V360H0V326Z" fill="#AED7C7"/>

  <g fill="#FFFFFF" fill-opacity=".86">
    <ellipse cx="168" cy="73" rx="63" ry="20"/>
    <ellipse cx="120" cy="79" rx="38" ry="15"/>
    <ellipse cx="213" cy="81" rx="43" ry="16"/>
    <ellipse cx="981" cy="62" rx="58" ry="19"/>
    <ellipse cx="938" cy="69" rx="35" ry="14"/>
    <ellipse cx="1023" cy="70" rx="38" ry="15"/>
  </g>

  <g transform="translate(834 126)">
    <rect x="0" y="44" width="222" height="126" rx="18" fill="#F8C9D3"/>
    <rect x="23" y="18" width="176" height="47" rx="15" fill="#FFF8F1"/>
    <path d="M26 18H197L180 0H43L26 18Z" fill="#E68A9E"/>
    <path d="M43 0L56 18M74 0L84 18M107 0L112 18M140 0L141 18M173 0L169 18" stroke="#FFF8F1" stroke-width="8"/>
    <rect x="27" y="85" width="72" height="85" rx="12" fill="#FFF8F1"/>
    <rect x="122" y="87" width="70" height="53" rx="12" fill="#B7DDEA"/>
    <circle cx="158" cy="112" r="18" fill="#FFF8F1"/>
    <circle cx="158" cy="112" r="8" fill="#F4C767"/>
    <path d="M157 87V57" stroke="#83B8A7" stroke-width="7" stroke-linecap="round"/>
    <path d="M158 64C142 58 136 47 140 35C155 39 162 48 158 64Z" fill="#83B8A7"/>
  </g>

  <g transform="translate(100 120)">
    <text x="0" y="0" fill="#79636B" font-family="Georgia, serif" font-size="23" letter-spacing="3">WELCOME TO</text>
    <text x="-2" y="79" fill="#654E57" font-family="Georgia, serif" font-size="68" font-weight="700">Littleseven's</text>
    <text x="2" y="129" fill="#E68A9E" font-family="'Courier New', monospace" font-size="20" font-weight="700" letter-spacing="4">CREATIVE LITTLE DESK</text>
    <path d="M2 157H525" stroke="#F4C767" stroke-width="6" stroke-linecap="round"/>
    <text x="4" y="194" fill="#79636B" fill-opacity=".82" font-family="'Courier New', monospace" font-size="14" letter-spacing="1.5">small tools · warm ideas · steady progress</text>
  </g>

  <g>
    <circle cx="742" cy="93" r="22" fill="#F4C767"/>
    <path d="M742 57V70M742 116V129M706 93H719M765 93H778M717 68L726 77M758 109L767 118M767 68L758 77M726 109L717 118" stroke="#F4C767" stroke-width="5" stroke-linecap="round"/>
    <path d="M1094 122L1102 142L1123 143L1106 156L1111 177L1094 165L1077 177L1082 156L1065 143L1086 142L1094 122Z" fill="#F4C767"/>
    <path d="M770 239L778 259L799 260L782 273L787 294L770 282L753 294L758 273L741 260L762 259L770 239Z" fill="#FFF8F1"/>
  </g>

  <rect x="1" y="1" width="1198" height="358" rx="29" stroke="#DDB6BE" stroke-opacity=".55" stroke-width="2"/>
</svg>
